# This file uses centimeters as units for non-parametric coordinates.

mtllib VideoCube.mtl
g default
v -50.000000 50.000000 -50.000000
v -50.000000 -50.000000 -50.000000
v 50.000000 -50.000000 -50.000000
v 50.000000 50.000000 -50.000000
v 50.000000 50.000000 50.000000
v 50.000000 -50.000000 50.000000
v -50.000000 -50.000000 50.000000
v -50.000000 50.000000 50.000000
vt 0.333 0.499
vt 0.333 1.000000
vt 0.666 1.000000
vt 0.666 0.499
vt 1.000000 1.000000
vt 1.000000 0.499
vt 0.000000 0.000000
vt -0.000000 0.499
vt 0.333 -0.000000
vt 0.666 -0.000000
vt 1.000000 -0.000000
vt -0.000000 1.000000
vt 0.334 -0.000000
vt 0.334 0.499
vt 0.334 1.000000
vt 0.667 -0.000000
vt 0.667 0.499
vt 0.667 1.000000
vt 0.333 0.501
vt 0.666 0.501
vt 1.000000 0.501
vt -0.000000 0.501
vt 0.334 0.501
vt 0.667 0.501
vn 0.000000 0.000000 1.000000
vn 0.000000 0.000000 -1.000000
vn -1.000000 0.000000 0.000000
vn 1.000000 0.000000 0.000000
vn 0.000000 -1.000000 0.000000
vn 0.000000 1.000000 0.000000
s off
g pCube1
usemtl initialShadingGroup
f 1/23/1 2/15/1 3/3/1 4/20/1
f 5/24/2 6/18/2 7/5/2 8/21/2
f 4/7/3 3/8/3 6/1/3 5/9/3
f 8/13/4 7/14/4 2/4/4 1/10/4
f 8/16/5 1/17/5 4/6/5 5/11/5
f 2/22/6 7/12/6 6/2/6 3/19/6
